# xmcd CD database file
# Copyright (C) 1993-1997  Ti Kan
#
# Track frame offsets:
#	150
#	22290
#	47042
#	66895
#	87845
#	102910
#	121825
#	141340
#	163232
#	179162
#
# Disc length: 2691 seconds
#
# Revision: 1
# Processed by: cddbd v1.4b41PL1 Copyright (c) Steve Scherf et al.
# Submitted via: xmcd 2.1 PL1
#
DISCID=930a810a
DTITLE=Bobby "Blue" Bland/ Portrait of the Blues
DYEAR=1900
DGENRE=
TTITLE0=Ain't No Love For Sale
TTITLE1=Hurtin' Love
TTITLE2=These Are The Things That A WOman Needs
TTITLE3=I Can Take You To Heaven Tonight
TTITLE4=The Last One To Know
TTITLE5=Just Take My Love
TTITLE6=I Just Won't Be Your Fool Anymore
TTITLE7=She's Puttin' Something In My Food
TTITLE8=When Hearts Grow Cold
TTITLE9=Let Love Have Its Way
EXTD=(C) 1991 Malaco (BMG)  MCD 7458\n\nRecording: Muscle Shoals Studio
EXTD=s, Sheffield AL and Malaco Studios, Jackson MS\n\nJames Robertson,
EXTD=Rager Hawkins: drums\nClayton Ivey, Steve Nathan: keyboards\nDunc
EXTD=an Cameron, Jimmy Johnson, Dino Zimmerman, Jack Pearson: guitars
EXTD=\nDavid Hood, Ray Griffin: bass\nMickey Buckins, Roger Hawkins: pe
EXTD=rcussion\n\nHarrison Calloway, Mike Haynes: trumpet\nHarvey Thompso
EXTD=n: tenor sax\nCharles Rose: trombone\nJim Horn: baritone, bass and a
EXTD=lto sax and flute\nThomisene Anderson, Jewel Bass, Dorothy Moore:
EXTD=backing vocals\n[strings omitted]\n\nEntry: Mike Lempriere <mikel@
EXTD=speakeasy.org> 17-Jun-1997\n
EXTT0=
EXTT1=
EXTT2=
EXTT3=
EXTT4=
EXTT5=
EXTT6=
EXTT7=
EXTT8=
EXTT9=
PLAYORDER=
